<?xml version="1.0" encoding="UTF-8"?>
<svg xmlns="http://www.w3.org/2000/svg" width="512" height="512" viewBox="0 0 128 128"><g><path d="M47.127,65.647A14.528,14.528,0,0,0,32.615,80.158V95.725a14.512,14.512,0,0,0,29.023,0V80.158A14.528,14.528,0,0,0,47.127,65.647ZM58.138,95.725a11.012,11.012,0,0,1-22.023,0V80.158a11.012,11.012,0,0,1,22.023,0Z"/><path d="M97.938,54.34,91.524,47.2A137.94,137.94,0,0,0,88.9,15.138h.425a1.75,1.75,0,0,0,1.75-1.75V8.807a4.254,4.254,0,0,0-4.25-4.25H74.918a4.254,4.254,0,0,0-4.25,4.25v4.581a1.75,1.75,0,0,0,1.75,1.75h.424A137.977,137.977,0,0,0,70.223,47.2L64,54.126,57.777,47.2a137.969,137.969,0,0,0-2.619-32.062h.424a1.75,1.75,0,0,0,1.75-1.75V8.807a4.254,4.254,0,0,0-4.25-4.25H41.171a4.254,4.254,0,0,0-4.25,4.25v4.581a1.75,1.75,0,0,0,1.75,1.75H39.1A137.94,137.94,0,0,0,36.476,47.2l-6.414,7.14a22.1,22.1,0,0,0-5.67,14.794v48.559a5.756,5.756,0,0,0,5.75,5.75H97.858a5.756,5.756,0,0,0,5.75-5.75V69.134A22.1,22.1,0,0,0,97.938,54.34ZM74.168,8.807a.751.751,0,0,1,.75-.75H86.829a.751.751,0,0,1,.75.75v2.831H74.168Zm-33.747,0a.751.751,0,0,1,.75-.75H53.082a.751.751,0,0,1,.75.75v2.831H40.421ZM27.892,117.693V69.134a18.608,18.608,0,0,1,4.773-12.455L39.562,49a1.751,1.751,0,0,0,.445-1.275,135.861,135.861,0,0,1,2.668-32.589h8.9a135.89,135.89,0,0,1,2.667,32.589A1.751,1.751,0,0,0,54.691,49l6.9,7.678a18.6,18.6,0,0,1,4.773,12.454v48.559a2.252,2.252,0,0,1-2.25,2.25H30.142A2.252,2.252,0,0,1,27.892,117.693Zm41.97-37.535a11.012,11.012,0,0,1,22.023,0V95.725a11.012,11.012,0,0,1-22.023,0Zm30.246,37.535a2.252,2.252,0,0,1-2.25,2.25H69.4a5.715,5.715,0,0,0,.459-2.25V105.15a14.5,14.5,0,0,0,25.523-9.425V80.158a14.5,14.5,0,0,0-25.523-9.425v-1.6a22.078,22.078,0,0,0-3.677-12.18c.078-.09.147-.186.226-.275L73.309,49a1.751,1.751,0,0,0,.445-1.275,135.89,135.89,0,0,1,2.667-32.589h8.9a135.861,135.861,0,0,1,2.668,32.589A1.751,1.751,0,0,0,88.438,49l6.9,7.678a18.6,18.6,0,0,1,4.773,12.454Z"/></g></svg>
